<svg xmlns="http://www.w3.org/2000/svg" width="513" height="410" viewBox="0 0 513 410">
<g>
<path d="M 263.30 402.37 C254.22,406.99 243.24,400.91 239.44,389.16 C238.49,386.23 237.05,383.57 236.25,383.27 C235.44,382.96 232.43,383.44 229.55,384.35 C216.43,388.49 210.60,385.12 206.41,371.00 C204.41,364.28 206.15,355.76 212.41,341.61 C213.83,338.39 215.00,335.39 215.00,334.96 C215.00,334.52 211.96,333.86 208.25,333.49 C199.67,332.64 177.14,327.61 169.98,324.94 C155.88,319.69 139.26,309.64 128.74,300.00 L 122.14 293.96 L 120.57 296.20 C119.71,297.43 119.00,298.78 119.00,299.19 C119.00,300.34 102.81,315.76 98.61,318.62 C91.49,323.46 79.86,328.35 74.40,328.80 C66.89,329.42 64.26,328.49 59.28,323.44 C55.82,319.92 54.20,319.00 51.52,319.00 C46.43,319.00 43.23,317.42 40.95,313.77 C37.90,308.91 38.58,297.58 42.40,289.69 C46.37,281.47 55.41,270.52 64.02,263.50 C68.07,260.20 73.19,255.86 75.39,253.87 L 79.40 250.23 L 77.75 244.87 C72.09,226.48 71.63,209.76 76.56,201.25 C80.30,194.81 82.84,191.64 84.45,191.40 C85.19,191.30 87.12,190.23 88.72,189.05 C90.33,187.86 93.40,186.28 95.54,185.55 C98.39,184.57 99.66,183.45 100.31,181.36 C104.98,166.11 116.26,145.24 126.37,133.16 C130.34,128.40 130.96,125.58 128.25,124.54 C127.04,124.08 126.06,124.58 125.07,126.18 C121.69,131.65 109.20,142.65 102.21,146.34 C95.33,149.97 94.74,150.11 91.63,148.84 C89.82,148.10 86.93,145.89 85.21,143.92 C74.60,131.75 72.04,112.50 79.14,98.06 C82.80,90.59 90.97,81.51 98.18,76.89 C104.95,72.54 119.29,66.50 126.50,64.96 C129.80,64.25 133.26,63.30 134.19,62.83 C135.17,62.35 136.13,62.40 136.48,62.96 C136.80,63.49 139.02,63.89 141.40,63.84 C153.24,63.60 165.65,72.44 173.05,86.40 C175.74,91.46 177.03,91.88 181.50,89.17 C185.27,86.88 205.95,78.70 212.17,77.03 C216.83,75.79 216.84,75.77 217.48,70.64 C218.67,61.04 222.01,53.33 227.73,47.01 C234.98,39.00 240.17,37.08 255.26,36.83 C268.50,36.62 273.23,38.19 279.20,44.80 C284.01,50.12 285.56,53.26 287.12,60.79 C288.35,66.76 288.52,67.00 291.45,67.02 C312.39,67.16 339.84,71.22 355.00,76.42 C359.12,77.83 363.20,78.99 364.06,78.99 C364.98,79.00 366.50,76.99 367.74,74.15 C369.68,69.72 369.74,68.95 368.48,65.40 C365.28,56.44 367.51,45.89 373.61,41.09 C376.91,38.49 379.18,38.44 381.42,40.91 C381.96,41.51 382.35,41.90 382.52,42.37 C382.89,43.46 382.00,44.97 378.79,50.48 C378.62,50.77 378.45,51.07 378.26,51.38 C376.80,53.90 376.62,57.65 377.94,58.46 C378.45,58.78 382.39,57.39 386.69,55.38 L 394.50 51.72 L 401.95 52.88 C410.36,54.19 413.24,55.70 416.04,60.30 C418.24,63.90 418.89,76.00 416.89,76.00 C416.29,76.00 414.86,77.18 413.72,78.63 C410.75,82.40 404.43,84.95 398.00,84.97 C393.68,84.99 391.01,84.24 385.55,81.49 C381.73,79.57 378.28,78.33 377.87,78.75 C377.47,79.16 376.86,80.66 376.51,82.08 C375.92,84.45 376.59,85.12 384.98,90.43 C400.00,99.96 412.56,113.51 420.98,129.30 C430.00,146.23 433.72,164.56 432.72,187.18 L 432.14 200.04 L 437.32 202.65 C463.28,215.73 476.91,228.16 476.98,238.82 C477.01,243.14 475.72,245.52 470.33,251.09 L 465.89 255.68 L 467.11 262.31 C469.15,273.38 465.45,280.39 456.22,282.96 C444.14,286.31 417.06,280.73 400.49,271.46 L 394.18 267.93 L 387.34 274.05 C371.42,288.31 350.82,301.66 328.69,312.07 L 316.65 317.73 L 314.49 325.11 C305.18,356.90 281.02,393.36 263.30,402.37 ZM 278.00 362.99 C281.58,366.25 284.79,368.93 285.15,368.96 C286.15,369.02 291.38,360.38 296.30,350.50 C303.12,336.80 308.11,322.53 309.74,312.00 C311.12,303.09 311.43,300.79 312.61,300.20 C313.02,300.00 313.53,300.00 314.23,300.00 C314.30,300.00 314.36,300.00 314.43,300.00 C316.96,300.00 319.61,303.20 318.53,304.95 C316.84,307.68 321.30,306.55 331.38,301.71 C350.70,292.42 370.02,279.13 386.35,263.90 C393.79,256.97 395.47,255.83 396.85,256.79 C406.76,263.71 419.38,269.93 423.61,269.98 C425.48,270.00 425.78,269.26 426.35,263.25 C427.77,248.32 431.45,237.82 439.98,224.36 C441.64,221.75 443.00,219.11 443.00,218.49 C443.00,217.88 438.78,215.27 433.63,212.69 C428.47,210.12 423.73,207.38 423.10,206.62 C422.28,205.63 422.22,203.94 422.88,200.86 C424.69,192.45 425.15,180.41 424.04,170.33 C418.49,120.00 384.56,87.40 327.50,77.58 C320.11,76.31 295.56,74.04 288.79,74.01 C287.66,74.00 286.73,75.27 286.05,77.75 C285.49,79.81 284.11,82.99 282.99,84.81 C281.87,86.63 281.18,88.48 281.46,88.93 C281.73,89.37 284.58,90.03 287.80,90.40 C294.20,91.12 298.00,93.15 298.00,95.86 C298.00,99.63 296.22,99.99 281.06,99.36 C269.57,98.88 264.62,99.10 257.57,100.44 C247.53,102.34 234.49,107.28 225.73,112.50 C219.31,116.33 216.89,116.78 215.01,114.51 C212.66,111.68 214.73,108.35 221.50,104.08 C225.07,101.82 228.00,99.60 228.00,99.14 C228.00,98.68 227.05,97.45 225.89,96.40 C224.73,95.36 222.45,91.87 220.83,88.67 C219.16,85.36 217.37,83.02 216.69,83.28 C216.04,83.53 212.87,84.49 209.65,85.42 C203.06,87.33 186.21,94.37 181.22,97.31 C179.10,98.55 178.09,99.81 178.38,100.87 C180.47,108.67 179.77,111.00 175.36,111.00 C172.73,111.00 172.00,109.69 170.07,101.52 C168.41,94.56 163.79,85.27 159.45,80.21 C148.56,67.50 132.46,67.38 108.57,79.83 C95.10,86.85 84.95,99.25 83.48,110.52 C82.65,116.82 85.07,127.62 88.45,132.75 C92.79,139.32 93.62,140.08 95.62,139.33 C102.75,136.64 117.00,124.36 117.00,120.90 C117.00,119.01 113.71,118.25 103.50,117.75 C98.89,117.52 98.48,117.29 98.19,114.82 C97.73,110.85 100.74,109.63 108.88,110.49 C124.76,112.17 134.59,116.65 143.82,126.40 C149.01,131.90 150.04,134.56 147.80,136.80 C145.86,138.74 143.81,138.21 140.39,134.89 L 137.18 131.78 L 130.77 139.88 C118.74,155.10 105.28,182.50 109.84,182.50 C110.58,182.50 111.80,180.70 112.55,178.50 C114.63,172.42 118.37,169.67 123.72,170.27 C126.12,170.54 129.03,171.60 130.18,172.63 C134.49,176.47 136.29,184.74 133.82,189.32 C133.17,190.52 132.72,192.67 132.82,194.09 C132.93,195.59 132.18,197.43 131.04,198.46 C129.14,200.18 128.89,200.12 123.62,196.62 C116.28,191.75 109.76,190.29 102.54,191.90 C95.99,193.37 88.44,198.17 85.29,202.88 C83.05,206.22 80.67,213.00 81.46,213.79 C81.69,214.02 83.38,213.05 85.24,211.63 C94.25,204.76 112.40,200.36 126.81,201.57 C147.22,203.28 166.45,209.53 175.69,217.46 C184.27,224.82 188.65,237.16 186.08,246.71 C183.77,255.27 175.89,262.50 165.00,266.04 C162.00,267.01 156.33,267.49 148.00,267.47 C134.82,267.44 129.59,266.36 118.27,261.36 C115.24,260.01 112.54,259.13 112.28,259.39 C111.34,260.32 114.11,266.77 118.49,273.87 C133.04,297.47 158.65,314.59 189.78,321.51 C199.93,323.76 220.81,326.64 221.37,325.86 C221.51,325.66 227.12,318.89 233.82,310.82 C246.65,295.37 250.10,292.00 253.10,292.00 C254.80,292.00 257.00,294.69 257.00,296.77 C257.00,297.27 253.09,301.83 248.32,306.91 C235.97,320.03 222.16,338.83 223.39,340.82 C223.69,341.32 226.50,342.02 229.62,342.38 C246.59,344.38 267.21,353.16 278.00,362.99 ZM 133.00 258.05 C145.21,261.39 152.57,260.11 157.24,253.86 C161.80,247.77 163.58,237.29 161.16,230.91 C158.52,223.96 149.83,217.26 137.78,212.86 C131.02,210.39 128.20,209.91 120.60,209.93 C108.06,209.95 95.73,213.51 89.64,218.87 C81.93,225.65 82.17,242.81 90.04,247.02 C91.22,247.65 96.61,248.79 102.01,249.55 C107.41,250.31 115.13,252.13 119.16,253.60 C123.20,255.07 129.43,257.07 133.00,258.05 ZM 294.17 179.25 C291.17,182.49 289.46,182.72 288.04,180.07 C286.44,177.08 286.65,176.49 292.04,168.94 L 297.08 161.88 L 288.26 152.56 C283.42,147.44 278.58,141.64 277.52,139.67 C275.65,136.19 275.65,136.05 277.45,134.05 C280.07,131.17 281.51,131.48 284.71,135.61 C293.52,147.00 296.81,150.56 303.30,155.74 C311.85,162.56 324.21,169.02 333.54,171.55 L 340.29 173.38 L 342.48 170.63 C345.95,166.27 348.00,158.23 348.00,148.91 C348.01,138.67 345.98,132.39 340.72,126.41 C331.45,115.89 313.94,112.76 290.86,117.48 C269.30,121.90 251.76,134.65 242.46,152.67 C238.07,161.15 235.18,163.08 232.98,158.97 C231.54,156.27 232.74,153.03 238.53,143.94 C249.50,126.73 267.66,114.45 289.50,109.47 C301.41,106.76 321.48,106.94 329.42,109.84 C345.25,115.63 353.28,125.46 355.98,142.36 C357.81,153.80 354.03,170.66 348.14,177.35 C344.40,181.59 341.41,182.27 334.17,180.50 C330.50,179.61 322.33,176.32 316.00,173.20 C309.67,170.08 304.20,167.38 303.84,167.20 C303.47,167.03 301.72,169.05 299.94,171.70 C298.16,174.34 295.56,177.74 294.17,179.25 ZM 86.89 307.75 C88.71,310.64 90.54,313.00 90.95,313.00 C92.36,313.00 100.51,306.62 105.60,301.52 C111.22,295.91 116.00,288.95 116.00,286.40 C116.00,285.49 114.31,282.22 112.25,279.12 C110.19,276.03 106.97,270.12 105.11,266.00 C103.25,261.87 101.45,258.20 101.11,257.84 C100.77,257.48 98.93,256.96 97.00,256.68 C95.07,256.40 92.08,255.86 90.35,255.48 C87.66,254.89 86.37,255.40 81.57,258.95 C73.34,265.02 61.41,275.61 59.05,278.93 L 56.99 281.82 L 64.25 285.80 C72.20,290.18 81.41,299.11 86.89,307.75 ZM 242.34 90.22 C244.49,92.30 246.52,93.99 246.87,93.98 C247.22,93.96 250.84,93.06 254.93,91.98 C259.02,90.89 263.75,89.99 265.43,89.99 C267.12,89.98 269.40,89.73 270.50,89.43 C276.02,87.92 281.57,72.98 280.78,61.74 C279.99,50.56 269.75,41.32 259.50,42.53 C246.08,44.12 235.80,56.83 235.80,71.86 C235.80,80.17 237.81,85.82 242.34,90.22 ZM 229.14 274.57 C223.45,276.30 214.82,276.42 213.20,274.80 C211.64,273.24 211.67,270.51 213.25,269.26 C213.94,268.71 217.23,268.03 220.57,267.74 C227.81,267.12 233.19,264.54 238.14,259.33 C244.02,253.13 245.47,249.50 245.46,240.97 C245.45,234.59 245.03,232.73 242.73,228.80 C234.72,215.13 218.31,211.18 203.65,219.38 C197.54,222.80 197.19,222.87 195.63,221.15 C193.63,218.93 193.54,216.62 195.41,215.07 C196.61,214.08 196.46,213.26 194.43,209.70 C191.38,204.37 191.33,199.29 194.28,194.91 C197.12,190.70 200.32,189.03 205.60,189.01 C212.91,188.99 218.95,194.71 218.99,201.69 C219.00,205.46 219.26,205.66 226.74,207.60 C234.33,209.58 239.90,212.95 244.81,218.52 C251.52,226.14 253.39,231.12 253.45,241.50 C253.49,249.44 253.17,251.11 250.75,255.71 C245.56,265.57 238.50,271.73 229.14,274.57 ZM 142.87 250.57 C131.42,256.49 118.88,241.78 126.19,231.01 C128.99,226.89 132.27,225.03 136.78,225.01 C144.64,224.98 150.99,230.76 151.00,237.95 C151.00,242.07 146.86,248.51 142.87,250.57 ZM 107.11 241.92 C102.76,245.02 99.30,244.60 95.45,240.52 C91.52,236.35 90.43,232.25 92.00,227.49 C94.29,220.58 103.99,218.63 109.07,224.07 C114.48,229.87 113.67,237.25 107.11,241.92 ZM 217.99 373.49 C219.89,375.78 221.27,375.35 225.10,371.25 C231.60,364.31 236.72,355.31 235.69,352.63 C235.03,350.92 229.06,349.01 224.36,349.01 C221.60,349.00 221.00,349.52 219.48,353.25 C217.21,358.79 216.28,371.43 217.99,373.49 ZM 167.00 254.90 C167.00,258.29 174.88,253.07 177.54,247.93 C179.53,244.07 179.34,236.35 177.13,231.50 C175.04,226.91 169.00,220.49 166.02,219.72 C163.39,219.03 163.47,219.79 166.69,226.01 C170.11,232.59 170.81,240.71 168.61,248.27 C167.72,251.32 167.00,254.30 167.00,254.90 ZM 451.00 241.05 C455.01,243.18 461.04,243.56 462.80,241.80 C465.50,239.10 464.14,235.34 458.46,229.87 C455.41,226.93 452.29,224.18 451.54,223.76 C449.80,222.79 447.57,224.95 444.89,230.21 L 442.85 234.21 L 445.18 236.70 C446.45,238.07 449.08,240.03 451.00,241.05 ZM 230.85 92.25 C233.12,94.72 236.66,96.14 235.83,94.24 C235.65,93.82 234.19,90.86 232.59,87.66 C227.23,76.91 227.98,63.92 234.65,52.25 C237.00,48.15 237.01,48.00 235.09,48.00 C233.02,48.00 229.44,52.12 226.55,57.84 C225.55,59.80 224.63,64.74 224.30,69.84 C223.81,77.41 224.03,79.22 226.03,84.01 C227.29,87.03 229.46,90.74 230.85,92.25 ZM 389.81 71.97 C395.19,74.81 402.05,74.64 404.92,71.59 C409.86,66.33 405.27,62.76 395.19,64.01 C389.10,64.77 384.43,67.27 385.59,69.14 C385.89,69.62 387.79,70.89 389.81,71.97 ZM 49.07 305.67 L 50.00 308.14 L 52.51 306.17 C56.44,303.08 63.00,294.72 63.00,292.79 C63.00,291.02 58.33,288.00 55.57,288.00 C52.08,288.00 47.29,301.01 49.07,305.67 Z" fill="rgb(88,57,101)"/>
<path d="M 230.41 62.43 C230.72,60.78 231.07,59.24 231.41,58.07 C233.19,51.92 232.69,50.44 229.97,53.79 C223.67,61.56 222.51,75.86 226.56,85.21 C226.37,84.80 226.19,84.40 226.03,84.01 C224.03,79.22 223.81,77.41 224.30,69.84 C224.63,64.74 225.55,59.80 226.55,57.84 C229.44,52.12 233.02,48.00 235.09,48.00 C237.01,48.00 237.00,48.15 234.65,52.25 C232.76,55.57 231.34,58.99 230.41,62.43 ZM 230.85 92.25 C229.97,91.29 228.77,89.44 227.69,87.45 C228.29,88.47 228.96,89.41 229.71,90.23 C231.76,92.50 233.28,92.51 232.62,90.25 C230.45,82.81 229.51,79.21 229.23,76.02 C229.64,80.07 230.76,83.99 232.59,87.66 C234.19,90.86 235.65,93.82 235.83,94.24 C236.66,96.14 233.12,94.72 230.85,92.25 Z" fill="rgb(101,75,101)"/>
<path d="M 230.41 62.43 C229.17,66.98 228.78,71.57 229.23,76.02 L 229.23 76.02 C229.51,79.21 230.45,82.81 232.62,90.25 C233.28,92.51 231.76,92.50 229.71,90.23 C228.96,89.41 228.29,88.47 227.69,87.45 C227.29,86.71 226.91,85.95 226.56,85.21 C222.51,75.86 223.67,61.56 229.97,53.79 C232.69,50.44 233.19,51.92 231.41,58.07 C231.07,59.24 230.72,60.78 230.41,62.43 Z" fill="rgb(157,109,66)"/>
<path d="M 382.52 42.37 C382.88,43.48 382.00,44.97 378.92,50.25 C378.71,50.61 378.50,50.99 378.26,51.38 C378.45,51.07 378.62,50.77 378.79,50.48 C382.00,44.97 382.89,43.46 382.52,42.37 C382.35,41.90 381.96,41.51 381.42,40.91 C379.18,38.44 376.91,38.49 373.61,41.09 C370.74,43.35 368.72,46.89 367.73,50.93 C368.39,45.22 369.19,43.41 371.45,41.06 C373.90,38.50 373.94,38.27 372.27,36.91 C360.59,27.41 333.56,15.75 311.47,10.67 C283.10,4.15 252.37,4.75 223.27,12.40 C205.39,17.11 181.52,27.70 169.05,36.47 C151.06,49.11 140.25,58.33 140.58,60.75 C140.67,61.44 140.81,62.35 140.88,62.78 C140.94,63.21 142.24,63.67 143.75,63.79 C148.14,64.15 152.61,65.78 156.83,68.42 C151.89,65.37 146.59,63.73 141.40,63.84 C139.02,63.89 136.80,63.49 136.48,62.96 C136.13,62.40 135.17,62.35 134.19,62.83 C133.30,63.28 130.08,64.18 126.90,64.87 C133.41,63.28 134.73,62.47 143.22,54.96 C155.88,43.76 161.69,39.39 174.19,31.66 C191.89,20.73 210.43,13.60 234.61,8.42 C248.95,5.35 277.51,4.04 290.50,5.85 C317.63,9.65 336.11,14.99 355.38,24.63 C367.30,30.59 378.48,37.54 381.32,40.76 C381.92,41.44 382.36,41.86 382.52,42.37 ZM 399.32 85.00 C398.65,85.00 398.04,84.99 397.46,84.97 C397.64,84.97 397.82,84.98 398.00,84.97 C404.43,84.95 410.75,82.40 413.72,78.63 C414.86,77.18 416.29,76.00 416.89,76.00 C417.72,76.00 418.09,73.95 418.09,71.29 C418.30,73.71 418.82,75.73 419.56,76.78 C420.41,78.00 420.75,79.00 420.32,79.00 C419.88,79.00 420.81,80.19 422.38,81.65 C425.47,84.51 431.99,94.21 436.73,103.00 C444.12,116.67 453.48,141.59 452.34,144.55 C452.04,145.35 452.18,146.00 452.67,146.00 C453.81,146.00 456.30,156.70 455.47,158.05 C455.12,158.62 455.26,159.63 455.79,160.29 C457.08,161.92 457.87,168.00 456.80,168.00 C455.75,168.00 455.70,167.83 453.49,156.00 C449.00,132.00 435.63,101.63 421.20,82.67 L 416.76 76.84 L 413.63 79.80 C408.96,84.22 406.80,85.00 399.32,85.00 ZM 94.88 185.79 C92.81,186.59 90.17,187.97 88.72,189.05 C87.12,190.23 85.19,191.30 84.45,191.40 C83.40,191.56 81.95,192.96 80.03,195.71 C82.50,191.78 82.88,189.95 83.46,181.28 C84.43,167.06 85.92,162.86 85.34,176.00 C85.09,181.77 84.74,187.23 84.57,188.12 C84.29,189.55 84.84,189.51 89.38,187.79 C91.21,187.09 93.29,186.34 94.88,185.79 ZM 281.04 386.98 C289.15,377.51 297.23,365.08 303.78,351.93 C302.33,354.90 300.86,357.72 299.44,360.21 C299.17,360.68 298.91,361.14 298.66,361.58 C293.13,371.27 291.92,373.40 292.54,374.50 C292.74,374.86 293.14,375.11 293.64,375.48 C295.38,376.75 295.31,376.89 292.50,377.63 C290.85,378.07 289.18,378.44 288.80,378.46 C288.41,378.48 285.66,381.45 282.69,385.05 C282.16,385.69 281.61,386.34 281.04,386.98 ZM 416.39 278.28 C424.76,281.06 433.68,282.97 441.42,283.66 C436.90,283.49 434.72,283.80 433.25,284.76 C431.27,286.06 431.00,286.05 431.00,284.74 C431.00,283.14 430.14,282.76 417.00,278.49 C416.80,278.42 416.60,278.35 416.39,278.28 ZM 87.64 157.18 C87.01,160.85 86.12,164.22 85.66,164.68 C84.78,165.54 85.51,160.21 87.16,153.65 C88.65,147.75 88.91,149.71 87.64,157.18 ZM 122.50 66.03 C116.85,67.79 109.37,70.88 103.57,73.85 C109.23,70.68 115.59,68.03 122.50,66.03 ZM 88.84 84.78 C84.82,88.97 81.24,93.78 79.14,98.06 C76.99,102.43 75.73,107.24 75.30,112.16 C75.32,111.96 75.33,111.75 75.35,111.56 C76.15,101.79 80.97,92.56 88.84,84.78 ZM 77.01 200.49 C76.86,200.74 76.71,200.99 76.56,201.25 C74.26,205.22 73.13,210.98 73.16,217.87 C73.14,216.53 73.18,215.26 73.26,214.07 C73.71,207.44 74.10,205.34 77.01,200.49 ZM 462.29 280.06 C466.99,276.47 468.62,270.50 467.11,262.31 C468.65,270.65 467.04,276.56 462.29,280.06 ZM 415.91 60.08 C414.17,57.30 412.37,55.67 409.22,54.53 C410.37,54.90 411.28,55.26 411.75,55.57 C413.48,56.71 414.88,58.23 415.91,60.08 ZM 417.99 68.77 C417.81,66.28 417.37,63.66 416.72,61.81 C417.53,63.84 417.97,66.19 417.99,68.77 ZM 75.48 121.44 C75.86,124.53 76.56,127.58 77.57,130.51 C76.84,128.47 76.25,126.38 75.87,124.31 C75.71,123.49 75.58,122.51 75.48,121.44 ZM 87.01 145.71 C88.57,147.08 90.36,148.32 91.63,148.84 C90.10,148.22 88.54,147.13 87.01,145.71 ZM 393.84 84.65 C391.35,84.22 389.18,83.32 385.55,81.49 C389.08,83.27 391.44,84.21 393.84,84.65 ZM 313.83 327.29 C314.06,326.56 314.28,325.84 314.49,325.11 L 316.65 317.73 L 314.49 325.11 C314.29,325.82 314.07,326.54 313.83,327.29 ZM 395.97 268.93 L 394.16 267.95 L 394.18 267.93 Z" fill="rgb(144,151,120)"/>
<path d="M 371.45 41.06 C369.19,43.41 368.39,45.22 367.73,50.93 C366.62,55.47 366.79,60.66 368.48,65.40 C369.74,68.95 369.68,69.72 367.74,74.15 C366.50,76.99 364.98,79.00 364.06,78.99 C363.20,78.99 359.12,77.83 355.00,76.42 C339.84,71.22 312.39,67.16 291.45,67.02 C288.52,67.00 288.35,66.76 287.12,60.79 C285.56,53.26 284.01,50.12 279.20,44.80 C273.23,38.19 268.50,36.62 255.26,36.83 C240.17,37.08 234.98,39.00 227.73,47.01 C222.01,53.33 218.67,61.04 217.48,70.64 C216.84,75.77 216.83,75.79 212.17,77.03 C205.95,78.70 185.27,86.88 181.50,89.17 C177.03,91.88 175.74,91.46 173.05,86.40 C168.90,78.56 163.16,72.33 156.83,68.42 C152.61,65.78 148.14,64.15 143.75,63.79 C142.24,63.67 140.94,63.21 140.88,62.78 C140.81,62.35 140.67,61.44 140.58,60.75 C140.25,58.33 151.06,49.11 169.05,36.47 C181.52,27.70 205.39,17.11 223.27,12.40 C252.37,4.75 283.10,4.15 311.47,10.67 C333.56,15.75 360.59,27.41 372.27,36.91 C373.94,38.27 373.90,38.50 371.45,41.06 ZM 416.39 278.28 L 416.39 278.28 C416.60,278.35 416.80,278.42 417.00,278.49 C430.14,282.76 431.00,283.14 431.00,284.74 C431.00,286.05 431.27,286.06 433.25,284.76 C433.65,284.50 434.09,284.29 434.62,284.12 C434.11,284.50 433.74,285.05 433.23,285.86 C432.30,287.31 430.97,288.86 430.27,289.30 C429.57,289.74 429.00,290.72 429.00,291.48 C429.00,292.24 428.31,293.55 427.46,294.39 C426.62,295.24 425.98,296.19 426.03,296.52 C426.13,297.05 423.15,301.25 420.50,304.34 C419.95,304.98 418.18,307.30 416.56,309.50 C412.46,315.07 387.95,339.00 386.33,339.00 C385.60,339.00 383.32,340.63 381.25,342.62 C379.19,344.61 375.65,347.08 373.38,348.11 C371.12,349.13 368.70,350.66 368.01,351.49 C367.32,352.32 366.16,353.00 365.43,353.00 C364.10,353.00 356.93,356.85 356.00,358.07 C355.01,359.36 349.06,362.00 347.12,362.00 C346.03,362.00 344.46,362.68 343.63,363.51 C342.80,364.35 340.63,365.32 338.81,365.67 C336.99,366.02 335.27,366.63 335.00,367.01 C333.74,368.76 316.61,373.26 298.55,376.60 C295.57,377.15 292.70,377.69 290.93,378.03 C291.43,377.91 291.96,377.77 292.50,377.63 C295.31,376.89 295.38,376.75 293.64,375.48 C293.14,375.11 292.74,374.86 292.54,374.50 C291.92,373.40 293.13,371.27 298.66,361.58 C298.91,361.14 299.17,360.68 299.44,360.21 C300.86,357.72 302.33,354.90 303.78,351.93 L 303.78 351.93 C307.83,343.81 311.29,335.42 313.83,327.29 L 313.83 327.28 C314.07,326.54 314.29,325.82 314.49,325.11 L 316.65 317.73 L 328.69 312.07 C350.82,301.66 371.42,288.31 387.34,274.05 L 394.16 267.95 L 395.97 268.93 L 400.49 271.46 C405.15,274.06 410.64,276.38 416.39,278.28 ZM 399.32 85.00 C406.80,85.00 408.96,84.22 413.63,79.80 L 416.76 76.84 L 421.20 82.67 C435.63,101.63 449.00,132.00 453.49,156.00 C455.70,167.83 455.75,168.00 456.80,168.00 C456.91,168.00 457.01,167.93 457.08,167.80 C458.06,182.73 458.52,208.82 457.60,209.73 C456.19,211.15 457.20,213.90 459.75,215.57 C465.15,219.10 473.32,227.57 475.12,231.50 C475.52,232.36 475.85,233.25 476.12,234.13 C472.75,224.59 459.56,213.86 437.32,202.65 L 432.14 200.04 L 432.72 187.18 C433.72,164.56 430.00,146.23 420.98,129.30 C412.56,113.51 400.00,99.96 384.98,90.43 C376.59,85.12 375.92,84.45 376.51,82.08 C376.86,80.66 377.47,79.16 377.87,78.75 C378.28,78.33 381.73,79.57 385.55,81.49 C389.18,83.32 391.35,84.22 393.84,84.65 C394.99,84.86 396.16,84.96 397.46,84.97 C398.04,84.99 398.65,85.00 399.32,85.00 ZM 116.69 302.01 C118.11,300.51 119.00,299.46 119.00,299.19 C119.00,298.78 119.71,297.43 120.57,296.20 L 122.14 293.96 L 128.74 300.00 C139.26,309.64 155.88,319.69 169.98,324.94 C177.14,327.61 199.67,332.64 208.25,333.49 C211.96,333.86 215.00,334.52 215.00,334.96 C215.00,335.39 213.83,338.39 212.41,341.61 C206.15,355.76 204.41,364.28 206.41,371.00 C206.52,371.39 206.64,371.77 206.76,372.15 C206.46,371.35 206.15,370.51 205.85,369.63 C204.76,366.52 203.72,365.48 200.50,364.31 C188.67,359.97 177.17,353.93 164.25,345.24 C159.71,342.19 156.00,339.32 156.00,338.85 C156.00,338.38 155.41,338.00 154.69,338.00 C153.97,338.00 152.38,336.65 151.16,335.00 C149.94,333.35 148.51,332.00 147.99,332.00 C146.95,332.00 130.00,315.48 130.00,314.46 C130.00,314.11 127.75,311.52 125.00,308.71 C122.25,305.90 120.00,303.02 120.00,302.30 C120.00,300.64 118.49,300.66 116.69,302.01 ZM 94.88 185.79 C93.29,186.34 91.21,187.09 89.38,187.79 C84.84,189.51 84.29,189.55 84.57,188.12 C84.74,187.23 85.09,181.77 85.34,176.00 C85.73,167.19 85.18,166.17 84.49,170.76 C84.75,168.60 85.02,166.44 85.30,164.37 C85.35,164.75 85.46,164.87 85.66,164.68 C86.12,164.22 87.01,160.85 87.64,157.18 C88.91,149.71 88.65,147.75 87.16,153.65 C86.96,154.45 86.77,155.23 86.60,155.99 C87.15,152.88 87.66,150.64 88.03,149.94 C88.70,148.70 88.04,147.24 85.47,144.24 C85.25,143.98 85.03,143.71 84.81,143.44 C84.94,143.60 85.08,143.76 85.21,143.92 C85.73,144.51 86.35,145.12 87.01,145.71 C88.54,147.13 90.10,148.22 91.63,148.84 C94.74,150.11 95.33,149.97 102.21,146.34 C109.20,142.65 121.69,131.65 125.07,126.18 C126.06,124.58 127.04,124.08 128.25,124.54 C130.96,125.58 130.34,128.40 126.37,133.16 C116.26,145.24 104.98,166.11 100.31,181.36 C99.66,183.45 98.39,184.57 95.54,185.55 C95.33,185.62 95.11,185.70 94.88,185.79 ZM 389.81 71.97 C387.79,70.89 385.89,69.62 385.59,69.14 C384.43,67.27 389.10,64.77 395.19,64.01 C405.27,62.76 409.86,66.33 404.92,71.59 C402.05,74.64 395.19,74.81 389.81,71.97 ZM 382.52 42.37 C382.36,41.86 381.92,41.44 381.32,40.76 C381.01,40.41 380.61,40.01 380.11,39.58 C380.64,40.02 381.16,40.45 381.65,40.88 C393.44,51.16 394.19,51.60 402.00,52.88 C402.28,52.92 402.56,52.97 402.84,53.02 C402.55,52.97 402.25,52.93 401.95,52.88 L 394.50 51.72 L 386.69 55.38 C382.39,57.39 378.45,58.78 377.94,58.46 C376.62,57.65 376.80,53.90 378.26,51.38 C378.50,50.99 378.71,50.61 378.92,50.25 C382.00,44.97 382.88,43.48 382.52,42.37 ZM 329.50 14.14 C318.21,10.61 305.89,8.02 290.93,5.91 C297.89,6.60 304.76,7.67 311.50,9.13 C317.24,10.37 323.34,12.08 329.50,14.14 ZM 229.25 9.62 C207.65,14.69 190.56,21.55 174.19,31.66 C161.69,39.39 155.88,43.76 143.22,54.96 C139.52,58.23 137.18,60.23 135.19,61.58 C137.08,60.27 139.28,58.32 142.74,55.15 C164.81,34.99 189.11,21.04 216.10,13.02 C220.43,11.73 224.82,10.60 229.25,9.62 ZM 430.17 91.97 C427.09,87.24 424.16,83.30 422.38,81.65 C420.81,80.19 419.88,79.00 420.32,79.00 C420.75,79.00 420.41,78.00 419.56,76.78 C419.12,76.15 418.75,75.17 418.49,73.97 C419.05,75.86 420.23,77.67 422.70,81.05 C425.42,84.79 427.88,88.37 430.17,91.97 ZM 456.62 162.12 C456.39,161.35 456.10,160.69 455.79,160.29 C455.26,159.63 455.12,158.62 455.47,158.05 C455.74,157.62 455.66,156.20 455.39,154.48 C455.86,156.74 456.22,158.78 456.44,160.50 C456.50,160.99 456.56,161.53 456.62,162.12 ZM 454.14 149.01 C453.62,147.28 453.06,146.00 452.67,146.00 C452.18,146.00 452.04,145.35 452.34,144.55 C452.56,143.99 452.40,142.65 451.95,140.76 C452.75,143.56 453.49,146.36 454.14,149.01 ZM 276.42 5.03 C267.55,4.96 257.19,5.46 248.17,6.40 C257.56,5.27 267.03,4.81 276.42,5.03 ZM 104.08 314.09 C107.28,311.23 111.09,307.64 114.06,304.69 C111.22,307.93 107.78,311.13 104.08,314.09 ZM 449.38 132.33 C447.30,126.36 444.40,119.10 441.40,112.52 C442.67,115.20 443.93,118.02 445.21,121.00 C446.54,124.10 447.98,128.06 449.38,132.33 ZM 375.95 36.45 C371.24,33.22 364.29,29.17 356.93,25.41 C364.13,28.97 370.68,32.74 375.95,36.45 ZM 229.55 384.35 C222.40,386.61 217.75,386.87 214.12,384.21 C217.81,386.63 222.68,386.52 229.55,384.35 ZM 74.44 328.80 C77.52,328.53 82.52,326.88 87.58,324.62 C82.75,326.97 78.20,328.48 74.56,328.79 C74.52,328.79 74.48,328.79 74.44,328.80 ZM 289.07 378.43 C288.14,378.93 285.41,381.76 282.69,385.05 C285.66,381.45 288.41,378.48 288.80,378.46 C288.86,378.46 288.95,378.45 289.07,378.43 ZM 474.59 246.20 C475.81,244.52 476.46,243.09 476.76,241.51 C476.60,242.54 476.30,243.49 475.88,244.32 C475.67,244.74 475.21,245.41 474.59,246.20 ZM 462.29 280.06 L 462.29 280.06 C467.04,276.56 468.65,270.65 467.11,262.31 C468.71,270.96 466.95,276.98 461.81,280.42 C461.97,280.30 462.13,280.18 462.29,280.06 ZM 83.44 181.58 C82.87,189.99 82.48,191.82 80.03,195.71 C79.99,195.77 79.95,195.83 79.91,195.89 C82.43,191.90 82.86,190.02 83.41,182.00 ZM 415.91 60.08 C414.92,58.30 413.59,56.82 411.95,55.70 C413.60,56.82 414.94,58.32 415.93,60.12 ZM 88.84 84.78 C81.89,91.66 77.31,99.66 75.79,108.17 C77.31,99.65 81.90,91.64 88.87,84.75 ZM 77.01 200.49 C76.30,201.67 75.74,202.70 75.29,203.66 C75.77,202.63 76.37,201.54 77.15,200.25 C77.10,200.33 77.06,200.41 77.01,200.49 ZM 281.04 386.98 C281.59,386.36 282.12,385.73 282.64,385.11 C282.10,385.77 281.53,386.43 280.95,387.09 ZM 75.29 112.29 C75.31,112.05 75.33,111.80 75.35,111.56 C75.33,111.75 75.32,111.96 75.30,112.16 C75.30,112.21 75.30,112.25 75.29,112.29 Z" fill="rgb(155,176,117)"/>
<path d="M 217.99 373.49 C216.28,371.43 217.21,358.79 219.48,353.25 C221.00,349.52 221.60,349.00 224.36,349.01 C229.06,349.01 235.03,350.92 235.69,352.63 C236.72,355.31 231.60,364.31 225.10,371.25 C221.27,375.35 219.89,375.78 217.99,373.49 ZM 451.00 241.05 C449.08,240.03 446.45,238.07 445.18,236.70 L 442.85 234.21 L 444.89 230.21 C447.57,224.95 449.80,222.79 451.54,223.76 C452.29,224.18 455.41,226.93 458.46,229.87 C464.14,235.34 465.50,239.10 462.80,241.80 C461.04,243.56 455.01,243.18 451.00,241.05 ZM 49.07 305.67 C47.29,301.01 52.08,288.00 55.57,288.00 C58.33,288.00 63.00,291.02 63.00,292.79 C63.00,294.72 56.44,303.08 52.51,306.17 L 50.00 308.14 ZM 462.31 280.07 L 462.30 280.07 C462.30,280.06 462.30,280.06 462.31,280.07 ZM 75.79 108.17 C75.79,108.16 75.79,108.16 75.79,108.16 C75.79,108.16 75.79,108.15 75.79,108.15 C75.83,107.93 75.87,107.71 75.92,107.49 C75.83,107.91 75.76,108.34 75.69,108.77 C75.72,108.57 75.75,108.37 75.79,108.17 Z" fill="rgb(179,150,177)"/>
<path d="M 109.84 182.50 C107.68,182.50 109.57,176.35 113.42,168.27 C112.56,170.29 111.92,172.07 111.59,173.50 C110.92,176.36 110.96,176.40 112.37,174.43 C113.49,172.88 116.04,171.55 118.83,170.82 C116.02,171.92 113.92,174.49 112.55,178.50 C111.80,180.70 110.58,182.50 109.84,182.50 ZM 133.40 177.21 C135.33,181.04 135.76,185.72 133.82,189.32 C135.53,186.16 135.19,181.23 133.40,177.21 ZM 123.05 170.21 C123.82,170.20 124.56,170.26 125.25,170.39 C126.26,170.58 127.22,170.94 128.12,171.45 C126.80,170.89 125.17,170.44 123.72,170.27 C123.50,170.25 123.27,170.23 123.05,170.21 ZM 137.18 131.78 L 137.23 131.83 L 131.87 138.49 ZM 130.43 140.32 C129.63,141.35 128.84,142.40 128.05,143.49 C128.85,142.39 129.64,141.33 130.43,140.32 Z" fill="rgb(219,190,198)"/>
<path d="M 167.00 254.90 C167.00,254.30 167.72,251.32 168.61,248.27 C170.81,240.71 170.11,232.59 166.69,226.01 C163.47,219.79 163.39,219.03 166.02,219.72 C169.00,220.49 175.04,226.91 177.13,231.50 C179.34,236.35 179.53,244.07 177.54,247.93 C174.88,253.07 167.00,258.29 167.00,254.90 Z" fill="rgb(171,72,111)"/>
<path d="M 280.73 61.19 C280.41,59.80 279.84,58.76 278.99,58.22 C277.60,57.36 277.04,56.05 277.19,54.04 C277.31,52.57 276.76,51.05 275.74,49.61 C278.45,52.82 280.30,56.84 280.73,61.19 ZM 278.59 77.54 L 280.73 61.19 C280.75,61.37 280.76,61.56 280.78,61.74 C281.13,66.78 280.21,72.56 278.59,77.54 ZM 259.10 42.49 C260.78,42.24 262.57,42.34 264.35,42.71 C262.76,42.41 261.13,42.34 259.50,42.53 C255.02,43.06 250.89,44.83 247.37,47.51 C240.35,52.91 235.80,61.90 235.80,71.86 C235.80,61.85 240.36,52.86 247.37,47.51 C250.78,44.89 254.77,43.12 259.10,42.49 ZM 275.74 49.61 C273.85,47.38 271.54,45.54 269.00,44.29 C271.82,45.62 274.27,47.53 275.74,49.61 ZM 278.59 77.54 C276.60,83.67 273.55,88.59 270.50,89.43 C273.55,88.59 276.57,83.45 278.59,77.54 ZM 269.00 44.29 C267.52,43.59 265.94,43.04 264.35,42.71 C265.95,43.02 267.51,43.55 269.00,44.29 Z" fill="rgb(206,148,85)"/>
<path d="M 278.00 362.99 C272.01,357.54 263.01,352.41 253.27,348.58 C259.30,350.86 265.02,353.56 269.50,356.33 C271.70,357.70 274.02,358.85 274.67,358.91 C275.82,359.00 280.02,348.77 290.04,321.50 C295.68,306.16 303.04,289.81 305.37,287.48 C307.98,284.87 311.76,285.74 316.38,290.00 C318.77,292.20 321.38,294.00 322.18,294.00 C324.18,294.00 346.41,281.18 356.37,274.28 C375.08,261.31 394.47,243.35 404.48,229.70 C408.61,224.05 409.88,222.96 411.98,223.21 C416.21,223.70 415.76,227.68 410.49,236.36 C407.95,240.55 406.16,244.45 406.52,245.03 C407.46,246.55 422.06,253.15 424.89,253.34 C426.90,253.47 427.47,252.81 429.14,247.55 C427.78,252.41 426.90,257.50 426.35,263.25 C425.78,269.26 425.48,270.00 423.61,269.98 C419.38,269.93 406.76,263.71 396.85,256.79 C395.47,255.83 393.79,256.97 386.35,263.90 C370.02,279.13 350.70,292.42 331.38,301.71 C321.30,306.55 316.84,307.68 318.53,304.95 C319.61,303.20 316.96,300.00 314.43,300.00 C314.36,300.00 314.30,300.00 314.23,300.00 C313.53,300.00 313.02,300.00 312.61,300.20 C311.43,300.79 311.12,303.09 309.74,312.00 C308.11,322.53 303.12,336.80 296.30,350.50 C291.38,360.38 286.15,369.02 285.15,368.96 C284.79,368.93 281.58,366.25 278.00,362.99 ZM 133.00 258.05 C129.43,257.07 123.20,255.07 119.16,253.60 C115.13,252.13 107.41,250.31 102.01,249.55 C96.61,248.79 91.22,247.65 90.04,247.02 C82.17,242.81 81.93,225.65 89.64,218.87 C95.73,213.51 108.06,209.95 120.60,209.93 C128.20,209.91 131.02,210.39 137.78,212.86 C149.83,217.26 158.52,223.96 161.16,230.91 C163.58,237.29 161.80,247.77 157.24,253.86 C152.57,260.11 145.21,261.39 133.00,258.05 ZM 294.17 179.25 C295.56,177.74 298.16,174.34 299.94,171.70 C301.72,169.05 303.47,167.03 303.84,167.20 C304.20,167.38 309.67,170.08 316.00,173.20 C322.33,176.32 330.50,179.61 334.17,180.50 C338.81,181.63 341.70,181.76 344.16,180.60 C342.97,181.56 341.73,182.62 340.85,183.41 C339.39,184.71 335.57,186.78 332.35,188.01 C325.02,190.80 311.24,191.51 302.00,189.58 C288.73,186.80 274.07,179.93 267.75,173.52 C261.76,167.44 265.30,160.05 279.87,148.30 L 282.23 146.39 L 279.35 142.30 C281.44,145.01 284.85,148.95 288.26,152.56 L 297.08 161.88 L 292.04 168.94 C286.65,176.49 286.44,177.08 288.04,180.07 C289.46,182.72 291.17,182.49 294.17,179.25 ZM 216.06 325.67 C219.40,325.84 221.63,325.61 222.10,324.87 C223.91,322.01 222.75,321.22 214.25,319.56 C202.89,317.34 187.39,312.17 177.42,307.28 C169.86,303.56 169.49,303.22 169.19,299.73 C168.93,296.58 169.22,295.98 171.28,295.47 C172.60,295.13 177.47,295.59 182.09,296.47 C195.89,299.12 211.40,300.94 225.95,301.64 L 239.66 302.29 L 245.34 297.15 C245.99,296.56 246.65,295.99 247.30,295.47 C244.45,298.22 240.35,302.95 233.82,310.82 C227.12,318.89 221.51,325.66 221.37,325.86 C221.20,326.10 219.13,326.00 216.06,325.67 ZM 142.87 250.57 C146.86,248.51 151.00,242.07 151.00,237.95 C150.99,230.76 144.64,224.98 136.78,225.01 C132.27,225.03 128.99,226.89 126.19,231.01 C118.88,241.78 131.42,256.49 142.87,250.57 ZM 86.89 307.75 C82.83,301.35 76.73,294.79 70.60,290.04 C73.16,291.96 75.66,294.07 77.45,295.90 C83.21,301.77 83.46,301.90 85.41,300.23 C92.77,293.91 96.05,290.54 102.08,283.08 C108.77,274.81 108.86,274.61 107.55,271.58 C106.39,268.92 105.44,266.74 104.64,264.95 C104.79,265.30 104.95,265.64 105.11,266.00 C106.97,270.12 110.19,276.03 112.25,279.12 C114.31,282.22 116.00,285.49 116.00,286.40 C116.00,288.95 111.22,295.91 105.60,301.52 C100.51,306.62 92.36,313.00 90.95,313.00 C90.54,313.00 88.71,310.64 86.89,307.75 ZM 107.11 241.92 C113.67,237.25 114.48,229.87 109.07,224.07 C103.99,218.63 94.29,220.58 92.00,227.49 C90.43,232.25 91.52,236.35 95.45,240.52 C99.30,244.60 102.76,245.02 107.11,241.92 ZM 90.47 135.74 C92.19,137.70 93.00,137.00 93.00,133.66 C93.00,129.60 95.34,121.50 97.14,119.33 C97.86,118.46 98.32,116.49 98.16,114.95 C98.05,113.90 98.16,113.04 98.52,112.35 C98.18,113.01 98.08,113.83 98.19,114.82 C98.48,117.29 98.89,117.52 103.50,117.75 C113.71,118.25 117.00,119.01 117.00,120.90 C117.00,124.36 102.75,136.64 95.62,139.33 C93.98,139.95 93.12,139.55 90.47,135.74 ZM 173.79 316.89 C180.19,319.08 188.28,321.15 196.01,322.74 C193.71,322.32 191.57,321.90 189.78,321.51 C184.26,320.28 178.93,318.74 173.79,316.89 ZM 139.90 298.04 C147.31,303.86 156.08,309.25 164.86,313.29 C155.69,309.18 147.30,304.05 139.90,298.04 ZM 295.51 148.68 C300.76,154.06 307.52,159.20 314.66,163.36 C310.56,161.02 306.64,158.41 303.30,155.74 C300.31,153.35 298.00,151.31 295.51,148.68 ZM 179.26 104.76 C179.39,105.23 179.52,105.74 179.68,106.30 C179.98,107.42 179.74,108.41 179.19,109.18 C179.59,108.20 179.60,106.77 179.26,104.76 ZM 115.28 268.24 C117.31,272.02 120.10,276.48 123.07,280.61 C121.44,278.43 119.91,276.18 118.49,273.87 C117.28,271.91 116.19,270.00 115.28,268.24 ZM 285.12 136.14 C286.60,137.91 288.56,140.39 291.23,143.82 L 291.27 143.87 C289.51,141.75 287.52,139.24 285.12,136.14 ZM 101.11 257.84 C101.31,258.06 102.02,259.42 102.95,261.36 C101.84,259.13 101.09,258.02 100.36,257.46 C100.74,257.59 101.00,257.73 101.11,257.84 ZM 98.00 256.85 C96.79,256.77 95.61,256.65 95.25,256.55 C94.68,256.39 94.15,256.25 93.66,256.13 C94.84,256.34 96.05,256.54 97.00,256.68 C97.34,256.73 97.68,256.78 98.00,256.85 ZM 89.80 255.37 C87.68,255.20 86.25,255.72 84.03,257.20 C86.68,255.41 87.96,255.06 89.80,255.37 ZM 178.72 99.40 C178.47,99.93 178.42,100.58 178.54,101.49 C178.49,101.29 178.43,101.08 178.38,100.87 C178.25,100.41 178.37,99.92 178.72,99.40 ZM 172.97 110.07 C172.61,109.73 172.31,109.30 172.10,108.75 C171.99,108.47 171.86,108.08 171.72,107.61 C172.12,108.77 172.52,109.56 172.97,110.07 ZM 355.98 142.36 C356.74,147.16 356.54,152.75 355.63,158.14 C356.53,152.69 356.73,147.06 355.98,142.36 ZM 276.77 134.84 C277.01,134.43 277.36,134.04 277.83,133.65 C277.71,133.78 277.58,133.91 277.45,134.05 C277.18,134.35 276.96,134.60 276.77,134.84 ZM 99.30 111.42 C100.81,110.21 103.86,109.96 108.88,110.49 C103.87,109.96 100.81,110.22 99.30,111.42 ZM 256.00 294.01 C256.60,294.86 257.00,295.86 257.00,296.77 C257.00,295.88 256.59,294.87 256.00,294.01 ZM 175.84 110.99 C175.65,111.01 175.46,111.01 175.27,111.00 C175.52,111.00 175.68,111.00 175.84,110.99 ZM 252.87 292.01 C252.91,292.00 252.94,292.00 252.98,292.00 C252.99,292.00 253.01,292.00 253.03,292.00 C252.97,292.00 252.92,292.00 252.87,292.01 Z" fill="rgb(231,141,164)"/>
<path d="M 123.05 170.21 C121.50,170.12 120.09,170.32 118.83,170.82 C116.04,171.55 113.49,172.88 112.37,174.43 C110.96,176.40 110.92,176.36 111.59,173.50 C111.92,172.07 112.56,170.29 113.42,168.27 C117.10,160.55 122.58,151.08 128.06,143.49 C128.84,142.40 129.64,141.35 130.43,140.32 C130.54,140.17 130.66,140.03 130.77,139.88 L 131.87 138.49 L 137.23 131.83 L 140.39 134.89 C143.81,138.21 145.86,138.74 147.80,136.80 C150.04,134.56 149.01,131.90 143.82,126.40 C134.59,116.65 124.76,112.17 108.88,110.49 C103.87,109.96 100.81,110.22 99.30,111.42 C98.96,111.69 98.71,112.00 98.52,112.35 C98.16,113.04 98.05,113.90 98.16,114.95 C98.32,116.49 97.86,118.46 97.14,119.33 C95.34,121.50 93.00,129.60 93.00,133.66 C93.00,137.00 92.19,137.70 90.47,135.74 C89.89,134.91 89.22,133.92 88.45,132.75 C85.07,127.62 82.65,116.82 83.48,110.52 C84.95,99.25 95.10,86.85 108.57,79.83 C132.46,67.38 148.56,67.50 159.45,80.21 C163.79,85.27 168.41,94.56 170.07,101.52 C170.71,104.25 171.22,106.21 171.72,107.61 C171.86,108.08 171.99,108.47 172.10,108.75 C172.31,109.30 172.61,109.73 172.97,110.07 C173.58,110.78 174.29,110.99 175.27,111.00 C175.46,111.01 175.65,111.01 175.84,110.99 C177.60,110.91 178.69,110.39 179.19,109.18 C179.74,108.41 179.98,107.42 179.68,106.30 C179.52,105.74 179.39,105.23 179.26,104.76 C179.10,103.81 178.86,102.72 178.54,101.49 C178.42,100.58 178.47,99.93 178.72,99.40 C179.17,98.73 180.02,98.01 181.22,97.31 C186.21,94.37 203.06,87.33 209.65,85.42 C212.87,84.49 216.04,83.53 216.69,83.28 C217.37,83.02 219.16,85.36 220.83,88.67 C222.45,91.87 224.73,95.36 225.89,96.40 C227.05,97.45 228.00,98.68 228.00,99.14 C228.00,99.60 225.07,101.82 221.50,104.08 C214.73,108.35 212.66,111.68 215.01,114.51 C216.89,116.78 219.31,116.33 225.73,112.50 C234.49,107.28 247.53,102.34 257.57,100.44 C264.62,99.10 269.57,98.88 281.06,99.36 C296.22,99.99 298.00,99.63 298.00,95.86 C298.00,93.15 294.20,91.12 287.80,90.40 C284.58,90.03 281.73,89.37 281.46,88.93 C281.18,88.48 281.87,86.63 282.99,84.81 C284.11,82.99 285.49,79.81 286.05,77.75 C286.73,75.27 287.66,74.00 288.79,74.01 C295.56,74.04 320.11,76.31 327.50,77.58 C384.56,87.40 418.49,120.00 424.04,170.33 C425.15,180.41 424.69,192.45 422.88,200.86 C422.22,203.94 422.28,205.63 423.10,206.62 C423.73,207.38 428.47,210.12 433.63,212.69 C438.78,215.27 443.00,217.88 443.00,218.49 C443.00,219.11 441.64,221.75 439.98,224.36 C434.74,232.64 431.32,239.80 429.14,247.55 C427.47,252.81 426.90,253.47 424.89,253.34 C422.06,253.15 407.46,246.55 406.52,245.03 C406.16,244.45 407.95,240.55 410.49,236.36 C415.76,227.68 416.21,223.70 411.98,223.21 C409.88,222.96 408.61,224.05 404.48,229.70 C394.47,243.35 375.08,261.31 356.37,274.28 C346.41,281.18 324.18,294.00 322.18,294.00 C321.38,294.00 318.77,292.20 316.38,290.00 C311.76,285.74 307.98,284.87 305.37,287.48 C303.04,289.81 295.68,306.16 290.04,321.50 C280.02,348.77 275.82,359.00 274.67,358.91 C274.02,358.85 271.70,357.70 269.50,356.33 C265.02,353.56 259.30,350.86 253.27,348.58 C245.46,345.51 237.18,343.27 229.62,342.38 C226.50,342.02 223.69,341.32 223.39,340.82 C222.16,338.83 235.97,320.03 248.32,306.91 C253.09,301.83 257.00,297.27 257.00,296.77 C257.00,295.88 256.59,294.87 256.00,294.01 L 256.00 294.01 C255.20,292.88 254.07,292.00 253.10,292.00 C253.08,292.00 253.05,292.00 253.03,292.00 C253.01,292.00 252.99,292.00 252.98,292.00 C252.94,292.00 252.91,292.00 252.87,292.01 C251.46,292.09 249.90,292.95 247.30,295.47 C246.65,295.99 245.99,296.56 245.34,297.15 L 239.66 302.29 L 225.95 301.64 C211.40,300.94 195.89,299.12 182.09,296.47 C177.47,295.59 172.60,295.13 171.28,295.47 C169.22,295.98 168.93,296.58 169.19,299.73 C169.49,303.22 169.86,303.56 177.42,307.28 C187.39,312.17 202.89,317.34 214.25,319.56 C222.75,321.22 223.91,322.01 222.10,324.87 C221.63,325.61 219.40,325.84 216.06,325.67 C210.85,325.13 202.73,323.95 196.01,322.74 C188.28,321.15 180.19,319.08 173.79,316.89 C170.74,315.80 167.76,314.60 164.86,313.29 C156.08,309.25 147.31,303.86 139.90,298.04 C133.51,292.85 127.86,287.02 123.07,280.61 C120.10,276.48 117.31,272.02 115.28,268.24 C112.87,263.63 111.60,260.07 112.28,259.39 C112.54,259.13 115.24,260.01 118.27,261.36 C129.59,266.36 134.82,267.44 148.00,267.47 C156.33,267.49 162.00,267.01 165.00,266.04 C175.89,262.50 183.77,255.27 186.08,246.71 C188.65,237.16 184.27,224.82 175.69,217.46 C166.45,209.53 147.22,203.28 126.81,201.57 C112.40,200.36 94.25,204.76 85.24,211.63 C83.38,213.05 81.69,214.02 81.46,213.79 C80.67,213.00 83.05,206.22 85.29,202.88 C87.13,200.13 90.48,197.34 94.25,195.21 C94.24,195.22 94.23,195.23 94.23,195.24 C93.40,196.24 95.67,196.50 105.26,196.50 C117.28,196.50 119.82,195.75 116.68,193.15 C116.48,192.98 116.23,192.82 115.96,192.68 C118.46,193.56 120.98,194.87 123.62,196.62 C128.89,200.12 129.14,200.18 131.04,198.46 C132.18,197.43 132.93,195.59 132.82,194.09 C132.72,192.67 133.17,190.52 133.82,189.32 C135.53,186.16 135.19,181.23 133.40,177.21 C132.60,175.42 131.51,173.82 130.18,172.63 C129.72,172.22 128.99,171.81 128.12,171.45 C127.22,170.94 126.26,170.58 125.25,170.39 C124.56,170.26 123.82,170.20 123.05,170.21 ZM 295.51 148.68 C294.19,147.29 292.82,145.73 291.27,143.87 L 291.23 143.82 C288.56,140.39 286.60,137.91 285.12,136.14 C284.98,135.96 284.84,135.79 284.71,135.61 C281.66,131.68 280.21,131.20 277.83,133.65 C277.36,134.04 277.01,134.43 276.77,134.84 C275.69,136.17 275.93,136.71 277.52,139.67 C277.84,140.25 278.48,141.17 279.35,142.30 L 282.23 146.39 L 279.87 148.30 C265.30,160.05 261.76,167.44 267.75,173.52 C274.07,179.93 288.73,186.80 302.00,189.58 C311.24,191.51 325.02,190.80 332.35,188.01 C335.57,186.78 339.39,184.71 340.85,183.41 C341.73,182.62 342.97,181.56 344.16,180.60 C345.54,179.94 346.79,178.88 348.14,177.35 C351.60,173.41 354.34,165.95 355.63,158.14 C356.54,152.75 356.74,147.16 355.98,142.36 C353.28,125.46 345.25,115.63 329.42,109.84 C321.48,106.94 301.41,106.76 289.50,109.47 C267.66,114.45 249.50,126.73 238.53,143.94 C232.74,153.03 231.54,156.27 232.98,158.97 C235.18,163.08 238.07,161.15 242.46,152.67 C251.76,134.65 269.30,121.90 290.86,117.48 C313.94,112.76 331.45,115.89 340.72,126.41 C345.98,132.39 348.01,138.67 348.00,148.91 C348.00,158.23 345.95,166.27 342.48,170.63 L 340.29 173.38 L 333.54 171.55 C327.85,170.01 321.05,167.01 314.66,163.36 C307.52,159.20 300.76,154.06 295.51,148.68 ZM 229.14 274.57 C238.50,271.73 245.56,265.57 250.75,255.71 C253.17,251.11 253.49,249.44 253.45,241.50 C253.39,231.12 251.52,226.14 244.81,218.52 C239.90,212.95 234.33,209.58 226.74,207.60 C219.26,205.66 219.00,205.46 218.99,201.69 C218.95,194.71 212.91,188.99 205.60,189.01 C200.32,189.03 197.12,190.70 194.28,194.91 C191.33,199.29 191.38,204.37 194.43,209.70 C196.46,213.26 196.61,214.08 195.41,215.07 C193.54,216.62 193.63,218.93 195.63,221.15 C197.19,222.87 197.54,222.80 203.65,219.38 C212.08,214.67 221.08,213.97 228.73,216.82 C227.04,216.29 225.30,216.00 223.55,216.00 C220.66,216.00 219.93,216.43 219.42,218.44 C218.58,221.83 219.10,222.40 228.39,228.40 C232.90,231.31 238.37,235.77 240.55,238.31 C242.72,240.85 244.90,242.95 245.38,242.97 C245.40,242.97 245.42,242.96 245.43,242.96 C245.21,250.11 243.55,253.64 238.14,259.33 C233.19,264.54 227.81,267.12 220.57,267.74 C217.23,268.03 213.94,268.71 213.25,269.26 C211.67,270.51 211.64,273.24 213.20,274.80 C214.82,276.42 223.45,276.30 229.14,274.57 ZM 98.00 256.85 C98.93,257.02 99.78,257.24 100.36,257.46 C101.09,258.02 101.84,259.13 102.95,261.36 C103.46,262.42 104.04,263.65 104.64,264.95 C105.44,266.74 106.39,268.92 107.55,271.58 C108.86,274.61 108.77,274.81 102.08,283.08 C96.05,290.54 92.77,293.91 85.41,300.23 C83.46,301.90 83.21,301.77 77.45,295.90 C75.66,294.07 73.16,291.96 70.60,290.04 C68.46,288.38 66.31,286.94 64.25,285.80 L 56.99 281.82 L 59.05 278.93 C61.41,275.61 73.34,265.02 81.57,258.95 C82.51,258.25 83.32,257.67 84.03,257.20 L 84.03 257.20 C86.25,255.72 87.68,255.20 89.80,255.37 C89.98,255.40 90.16,255.44 90.35,255.48 C91.23,255.67 92.43,255.91 93.66,256.13 C94.15,256.25 94.68,256.39 95.25,256.55 C95.61,256.65 96.79,256.77 98.00,256.85 ZM 410.55 182.82 C410.79,183.55 411.78,183.99 412.75,183.80 C414.30,183.49 414.48,182.22 414.36,172.89 C413.99,145.59 400.44,122.22 375.20,105.31 C366.68,99.60 353.00,93.03 349.58,93.01 C346.92,93.00 344.00,95.87 344.00,98.50 C344.00,101.67 346.32,103.30 357.15,107.73 C362.45,109.90 370.62,114.25 375.29,117.39 C395.10,130.70 406.34,149.00 409.04,172.31 C409.62,177.36 410.30,182.10 410.55,182.82 ZM 336.70 160.31 C337.66,161.89 340.43,160.44 341.11,157.99 C342.29,153.75 342.04,143.75 340.62,138.42 C337.39,126.27 330.94,121.66 315.31,120.33 C301.04,119.11 286.83,124.17 293.89,127.94 C296.99,129.60 313.96,131.12 321.28,130.40 C327.51,129.79 328.30,129.93 330.55,132.05 C333.57,134.88 334.62,138.80 335.52,150.50 C335.90,155.45 336.43,159.86 336.70,160.31 ZM 99.52 96.03 C100.67,97.89 103.83,96.96 115.57,91.32 C130.66,84.06 135.06,83.52 143.23,87.92 C150.68,91.92 153.00,91.96 153.00,88.08 C153.00,77.24 133.75,72.39 118.48,79.38 C108.46,83.97 97.83,93.30 99.52,96.03 ZM 278.59 77.54 L 280.73 61.19 C280.75,61.37 280.76,61.56 280.78,61.74 C281.13,66.78 280.21,72.56 278.59,77.54 ZM 240.31 225.27 C241.18,226.36 241.99,227.54 242.73,228.80 C244.30,231.48 244.99,233.20 245.28,236.03 C244.47,232.09 242.70,228.39 240.31,225.27 ZM 112.08 191.64 C109.04,191.26 105.19,191.45 101.79,192.08 C102.04,192.02 102.29,191.96 102.54,191.90 C105.82,191.17 108.95,191.07 112.08,191.64 Z" fill="rgb(245,204,203)"/>
<path d="M 235.80 71.86 C235.80,61.90 240.35,52.91 247.37,47.51 C250.89,44.83 255.02,43.06 259.50,42.53 C261.13,42.34 262.76,42.41 264.35,42.71 C265.95,43.02 267.51,43.55 269.00,44.29 C269.71,44.64 270.41,45.04 271.09,45.48 C269.83,44.70 269.49,44.99 268.56,46.25 C267.30,47.97 260.35,55.43 244.74,71.81 C239.46,77.35 237.28,79.94 237.38,82.51 C236.30,79.51 235.80,76.02 235.80,71.86 ZM 278.59 77.54 C276.57,83.45 273.55,88.59 270.50,89.43 C269.40,89.73 267.12,89.98 265.43,89.99 C263.75,89.99 259.02,90.89 254.93,91.98 C254.14,92.19 253.36,92.39 252.62,92.58 C254.78,91.91 256.00,91.08 256.00,90.24 C256.00,88.40 277.92,66.00 279.72,66.00 C279.87,66.00 280.00,65.96 280.12,65.88 C280.46,65.65 280.70,65.13 280.85,64.46 C280.79,68.79 279.93,73.44 278.59,77.54 ZM 246.18 92.61 C246.09,92.99 246.03,93.28 246.05,93.50 C245.35,92.97 244.28,92.05 243.13,90.97 C243.67,91.10 244.00,90.80 244.00,90.00 C244.00,89.07 250.12,82.37 270.28,61.20 C274.69,56.57 276.62,54.47 277.18,53.11 C277.21,53.42 277.22,53.73 277.19,54.04 C277.04,56.05 277.60,57.36 278.99,58.22 C279.18,58.34 279.36,58.49 279.52,58.66 C277.44,58.79 246.80,89.94 246.18,92.61 ZM 246.67 93.91 C247.03,93.91 247.58,93.83 248.38,93.65 C247.54,93.85 246.99,93.97 246.87,93.98 C246.83,93.98 246.76,93.95 246.67,93.91 Z" fill="rgb(230,160,66)"/>
<path d="M 242.34 90.22 C240.08,88.02 238.45,85.51 237.38,82.51 C237.28,79.94 239.46,77.35 244.74,71.81 C260.35,55.43 267.30,47.97 268.56,46.25 C269.49,44.99 269.83,44.70 271.09,45.48 C272.81,46.61 274.38,48.01 275.74,49.61 C276.54,50.75 277.05,51.93 277.18,53.11 C276.62,54.47 274.69,56.57 270.28,61.20 C250.12,82.37 244.00,89.07 244.00,90.00 C244.00,90.80 243.67,91.10 243.13,90.97 C242.87,90.72 242.61,90.47 242.34,90.22 ZM 246.18 92.61 C246.80,89.94 277.44,58.79 279.52,58.66 C280.09,59.25 280.48,60.11 280.73,61.19 L 280.73 61.22 L 280.74 61.26 C280.75,61.42 280.77,61.58 280.78,61.74 C280.84,62.63 280.86,63.54 280.85,64.46 C280.70,65.13 280.46,65.65 280.12,65.88 C280.00,65.96 279.87,66.00 279.72,66.00 C277.92,66.00 256.00,88.40 256.00,90.24 C256.00,91.08 254.78,91.91 252.62,92.58 C250.92,93.03 249.43,93.40 248.38,93.65 C247.58,93.83 247.03,93.91 246.67,93.91 C246.52,93.83 246.31,93.69 246.05,93.50 C246.03,93.28 246.09,92.99 246.18,92.61 Z" fill="rgb(246,207,111)"/>
<path d="M 0.00 205.00 L 0.00 0.00 L 256.50 0.00 L 513.00 0.00 L 513.00 205.00 L 513.00 410.00 L 256.50 410.00 L 0.00 410.00 L 0.00 205.00 ZM 263.30 402.37 C268.23,399.86 276.72,392.29 282.64,385.11 C285.58,381.54 288.56,378.50 289.25,378.35 C289.94,378.21 294.12,377.42 298.55,376.60 C316.61,373.26 333.74,368.76 335.00,367.01 C335.27,366.63 336.99,366.02 338.81,365.67 C340.63,365.32 342.80,364.35 343.63,363.51 C344.46,362.68 346.03,362.00 347.12,362.00 C349.06,362.00 355.01,359.36 356.00,358.07 C356.93,356.85 364.10,353.00 365.43,353.00 C366.16,353.00 367.32,352.32 368.01,351.49 C368.70,350.66 371.12,349.13 373.38,348.11 C375.65,347.08 379.19,344.61 381.25,342.62 C383.32,340.63 385.60,339.00 386.33,339.00 C387.95,339.00 412.46,315.07 416.56,309.50 C418.18,307.30 419.95,304.98 420.50,304.34 C423.15,301.25 426.13,297.05 426.03,296.52 C425.98,296.19 426.62,295.24 427.46,294.39 C428.31,293.55 429.00,292.24 429.00,291.48 C429.00,290.72 429.57,289.74 430.27,289.30 C430.97,288.86 432.30,287.31 433.23,285.86 C434.87,283.27 435.08,283.23 443.20,283.72 C462.07,284.88 469.97,277.80 467.11,262.31 L 465.89 255.68 L 470.33 251.09 C472.77,248.57 475.27,245.52 475.88,244.32 C477.51,241.12 477.21,236.06 475.12,231.50 C473.32,227.57 465.15,219.10 459.75,215.57 C457.20,213.90 456.19,211.15 457.60,209.73 C458.70,208.63 457.82,171.33 456.44,160.50 C455.22,150.97 449.63,131.28 445.21,121.00 C438.37,105.08 432.12,93.98 422.70,81.05 C418.44,75.21 418.00,74.08 418.00,69.05 C417.99,62.99 415.79,58.22 411.80,55.60 C410.53,54.78 406.12,53.55 402.00,52.88 C394.19,51.60 393.44,51.16 381.65,40.88 C367.68,28.69 336.28,14.47 311.50,9.13 C280.70,2.48 246.95,3.85 216.10,13.02 C189.11,21.04 164.81,34.99 142.74,55.15 C134.60,62.59 133.48,63.28 126.74,64.91 C97.46,72.01 77.07,90.52 75.35,111.56 C74.33,123.99 77.84,135.32 85.47,144.24 C88.04,147.24 88.70,148.70 88.03,149.94 C86.83,152.18 84.23,170.25 83.41,182.00 C82.83,190.42 82.38,192.07 79.52,196.50 C74.27,204.62 73.82,205.88 73.26,214.07 C72.70,222.17 74.45,234.16 77.75,244.87 L 79.40 250.23 L 75.39 253.87 C73.19,255.86 68.07,260.20 64.02,263.50 C55.41,270.52 46.37,281.47 42.40,289.69 C38.58,297.58 37.90,308.91 40.95,313.77 C43.23,317.42 46.43,319.00 51.52,319.00 C54.20,319.00 55.82,319.92 59.28,323.44 C64.28,328.51 66.89,329.42 74.56,328.79 C85.46,327.88 104.49,316.08 114.80,303.83 C117.29,300.87 120.00,300.07 120.00,302.30 C120.00,303.02 122.25,305.90 125.00,308.71 C127.75,311.52 130.00,314.11 130.00,314.46 C130.00,315.48 146.95,332.00 147.99,332.00 C148.51,332.00 149.94,333.35 151.16,335.00 C152.38,336.65 153.97,338.00 154.69,338.00 C155.41,338.00 156.00,338.38 156.00,338.85 C156.00,339.32 159.71,342.19 164.25,345.24 C177.17,353.93 188.67,359.97 200.50,364.31 C203.72,365.48 204.76,366.52 205.85,369.63 C211.48,385.76 216.06,388.60 229.55,384.35 C232.43,383.44 235.44,382.96 236.25,383.27 C237.05,383.57 238.49,386.23 239.44,389.16 C243.24,400.91 254.22,406.99 263.30,402.37 ZM 240.55 238.31 C238.37,235.77 232.90,231.31 228.39,228.40 C219.10,222.40 218.58,221.83 219.42,218.44 C219.93,216.43 220.66,216.00 223.55,216.00 C233.87,216.00 244.03,226.04 245.57,237.75 C245.95,240.64 245.86,242.99 245.38,242.97 C244.90,242.95 242.72,240.85 240.55,238.31 ZM 94.23 195.24 C97.32,191.48 112.92,190.03 116.68,193.15 C119.82,195.75 117.28,196.50 105.26,196.50 C95.67,196.50 93.40,196.24 94.23,195.24 ZM 410.55 182.82 C410.30,182.10 409.62,177.36 409.04,172.31 C406.34,149.00 395.10,130.70 375.29,117.39 C370.62,114.25 362.45,109.90 357.15,107.73 C346.32,103.30 344.00,101.67 344.00,98.50 C344.00,95.87 346.92,93.00 349.58,93.01 C353.00,93.03 366.68,99.60 375.20,105.31 C400.44,122.22 413.99,145.59 414.36,172.89 C414.48,182.22 414.30,183.49 412.75,183.80 C411.78,183.99 410.79,183.55 410.55,182.82 ZM 336.70 160.31 C336.43,159.86 335.90,155.45 335.52,150.50 C334.62,138.80 333.57,134.88 330.55,132.05 C328.30,129.93 327.51,129.79 321.28,130.40 C313.96,131.12 296.99,129.60 293.89,127.94 C286.83,124.17 301.04,119.11 315.31,120.33 C330.94,121.66 337.39,126.27 340.62,138.42 C342.04,143.75 342.29,153.75 341.11,157.99 C340.43,160.44 337.66,161.89 336.70,160.31 ZM 99.52 96.03 C97.83,93.30 108.46,83.97 118.48,79.38 C133.75,72.39 153.00,77.24 153.00,88.08 C153.00,91.96 150.68,91.92 143.23,87.92 C135.06,83.52 130.66,84.06 115.57,91.32 C103.83,96.96 100.67,97.89 99.52,96.03 Z" fill="rgb(254,254,254)"/>
</g>
</svg>